<svg width="72" height="72" viewBox="0 0 72 72" fill="none" xmlns="http://www.w3.org/2000/svg">
        <path d="M58.5 24c-4.2 0-7.5 3.3-7.5 7.5 0 3.6 2.7 6.6 6 7.2v7.8c0 9-7.5 16.5-16.5 16.5S24 55.5 24 46.5V45c8.4-.9 15-7.8 15-16.5v-21c0-.9-.6-1.5-1.5-1.5h-6c-.9 0-1.5.6-1.5 1.5S30.6 9 31.5 9H36v19.5C36 36 30 42 22.5 42S9 36 9 28.5V9h4.5c.9 0 1.5-.6 1.5-1.5S14.4 6 13.5 6h-6C6.6 6 6 6.6 6 7.5v21c0 8.7 6.6 15.6 15 16.5v1.5C21 57.3 29.7 66 40.5 66S60 57.3 60 46.5v-7.8c3.3-.6 6-3.6 6-7.2 0-4.2-3.3-7.5-7.5-7.5zm0 12c-2.4 0-4.5-2.1-4.5-4.5s2.1-4.5 4.5-4.5 4.5 2.1 4.5 4.5-2.1 4.5-4.5 4.5z" fill="#fff"></path>
    </svg>