<svg width="27" height="27" viewBox="0 0 27 27" fill="none" xmlns="http://www.w3.org/2000/svg">
        <path fill-rule="evenodd" clip-rule="evenodd" d="M1.008 12.421c0-6.123 5.016-11.105 11.182-11.105 6.165 0 11.182 4.982 11.182 11.105S18.356 23.526 12.19 23.526 1.008 18.544 1.008 12.421zm1.397.001c0 5.358 4.39 9.717 9.784 9.717 5.395 0 9.785-4.359 9.785-9.717 0-5.358-4.39-9.717-9.785-9.717-5.395 0-9.784 4.36-9.784 9.717z" fill="#000"></path>
        <path d="M12.19.73C5.704.73.42 5.97.42 12.42h1.175c0-5.795 4.75-10.517 10.595-10.517V.729zM23.96 12.42C23.96 5.97 18.675.73 12.19.73v1.175c5.845 0 10.595 4.722 10.595 10.517h1.174zM12.19 24.113c6.486 0 11.77-5.24 11.77-11.692h-1.175c0 5.795-4.75 10.518-10.595 10.518v1.174zM.42 12.421c0 6.452 5.284 11.692 11.77 11.692V22.94c-5.845 0-10.595-4.723-10.595-10.518H.421zm11.77 9.13c-5.075 0-9.198-4.1-9.198-9.129H1.818c0 5.686 4.656 10.304 10.371 10.304v-1.174zm9.196-9.129c0 5.03-4.122 9.13-9.197 9.13v1.174c5.716 0 10.372-4.618 10.372-10.304h-1.175zm-9.197-9.13c5.075 0 9.197 4.1 9.197 9.13h1.175c0-5.686-4.656-10.304-10.372-10.304v1.175zm-9.197 9.13c0-5.03 4.123-9.13 9.197-9.13V2.119c-5.715 0-10.371 4.618-10.371 10.304h1.174z" fill="#fff"></path>
        <path d="m25.815 24.075-4.774-4.186a.935.935 0 0 0-1.338 0 .973.973 0 0 0 0 1.36l4.774 4.186a.935.935 0 0 0 1.338 0 .973.973 0 0 0 0-1.36z" fill="#fff" stroke="#fff" stroke-width="1.175"></path>
    </svg>